<svg id="visual" viewBox="0 0 960 540" width="960" height="540" xmlns="http://www.w3.org/2000/svg" xmlns:xlink="http://www.w3.org/1999/xlink" version="1.1"><g transform="translate(-16.91728110841497 498.34904414252026)"><path d="M106.6 -167C120 -137.1 100.1 -81.6 125.6 -33.6C151.1 14.3 222 54.8 226.7 83.9C231.3 113.1 169.7 131 120.9 163.9C72.1 196.9 36.1 245 -15 265.7C-66.1 286.3 -132.3 279.7 -164.9 241.5C-197.6 203.2 -196.7 133.5 -187.8 80.1C-178.8 26.8 -161.7 -10.1 -138.4 -33.6C-115.2 -57.2 -85.8 -67.4 -61.7 -93.9C-37.6 -120.4 -18.8 -163.2 13.9 -182.4C46.6 -201.5 93.3 -197 106.6 -167" fill="#a00088"></path></g></svg>