<svg id="visual" viewBox="0 0 960 540" width="960" height="540" xmlns="http://www.w3.org/2000/svg" xmlns:xlink="http://www.w3.org/1999/xlink" version="1.1"><path d="M0 110L10.7 102.7C21.3 95.3 42.7 80.7 64 69.3C85.3 58 106.7 50 128 59C149.3 68 170.7 94 192 107.2C213.3 120.3 234.7 120.7 256 109C277.3 97.3 298.7 73.7 320 75.8C341.3 78 362.7 106 384 112.8C405.3 119.7 426.7 105.3 448 97.8C469.3 90.3 490.7 89.7 512 82.2C533.3 74.7 554.7 60.3 576 53.2C597.3 46 618.7 46 640 61C661.3 76 682.7 106 704 115.8C725.3 125.7 746.7 115.3 768 97C789.3 78.7 810.7 52.3 832 39C853.3 25.7 874.7 25.3 896 30.7C917.3 36 938.7 47 949.3 52.5L960 58L960 0L949.3 0C938.7 0 917.3 0 896 0C874.7 0 853.3 0 832 0C810.7 0 789.3 0 768 0C746.7 0 725.3 0 704 0C682.7 0 661.3 0 640 0C618.7 0 597.3 0 576 0C554.7 0 533.3 0 512 0C490.7 0 469.3 0 448 0C426.7 0 405.3 0 384 0C362.7 0 341.3 0 320 0C298.7 0 277.3 0 256 0C234.7 0 213.3 0 192 0C170.7 0 149.3 0 128 0C106.7 0 85.3 0 64 0C42.7 0 21.3 0 10.7 0L0 0Z" fill="#9a09a9" stroke-linecap="round" stroke-linejoin="miter"></path></svg>